M48
METRIC,LZ,000.000
;FILE_FORMAT=3:3
;TYPE=PLATED
;Layer: PTH_Through
;EasyEDA v6.5.5, 2022-06-09 08:05:29
;69c24ae5296d417eb78979a02e7a08e9,9bf960991b9d4efa812b5d32ee5e6833,10
;Gerber Generator version 0.2
;Holesize 1 = 0.889 mm
T01C0.889
;Holesize 2 = 1.000 mm
T02C1.000
;Holesize 3 = 1.021 mm
T03C1.021
%
G05
G90
T01
X056109Y073744
X058649Y073744
T02
X021844Y079375
X019304Y079375
X014209Y084930
X014209Y087470
X016749Y084930
X016749Y087470
X019289Y084930
X019289Y087470
X021829Y084930
X021829Y087470
X024369Y084930
X024369Y087470
X026909Y084930
X026909Y087470
X029449Y084930
X029449Y087470
X031989Y084930
X031989Y087470
X034529Y084930
X034529Y087470
X037069Y084930
X037069Y087470
X039609Y084930
X039609Y087470
X042149Y084930
X042149Y087470
X044689Y084930
X044689Y087470
X047229Y084930
X047229Y087470
X049769Y084930
X049769Y087470
X052309Y084930
X052309Y087470
X054849Y084930
X054849Y087470
T03
X014199Y071930
X014199Y074470
X016739Y071930
X016739Y074470
X019279Y071930
X019279Y074470
X021819Y071930
X021819Y074470
X024359Y071930
X024359Y074470
X026899Y071930
X026899Y074470
X029439Y071930
X029439Y074470
X031979Y071930
X031979Y074470
X034519Y071930
X034519Y074470
X037059Y071930
X037059Y074470
X039599Y071930
X039599Y074470
X042139Y071930
X042139Y074470
X044679Y071930
X044679Y074470
M30
