G04 Layer: BottomLayer*
G04 EasyEDA v6.5.5, 2022-06-09 08:05:29*
G04 69c24ae5296d417eb78979a02e7a08e9,9bf960991b9d4efa812b5d32ee5e6833,10*
G04 Gerber Generator version 0.2*
G04 Scale: 100 percent, Rotated: No, Reflected: No *
G04 Dimensions in millimeters *
G04 leading zeros omitted , absolute positions ,4 integer and 5 decimal *
%FSLAX45Y45*%
%MOMM*%

%ADD10C,0.2540*%
%ADD11C,0.5080*%
%ADD13C,1.8000*%
%ADD16C,1.6000*%
%ADD18C,1.5240*%
%ADD19R,1.5748X1.5748*%
%ADD20C,1.5748*%

%LPD*%
D10*
X1419862Y7446977D02*
G01*
X1419862Y7725006D01*
X2055878Y8361022D01*
X2055878Y8619975D01*
X2182878Y8746975D01*
X1673862Y7446977D02*
G01*
X1673862Y7912585D01*
X2029132Y8267854D01*
X2400378Y8267854D01*
X2563878Y8431354D01*
X2563878Y8619975D01*
X2690878Y8746975D01*
D11*
X5864862Y7374384D02*
G01*
X5864862Y7858991D01*
X5230878Y8492975D01*
X2181862Y7446977D02*
G01*
X2181862Y7934962D01*
X2184402Y7937502D01*
X4467862Y7192977D02*
G01*
X5230878Y7955993D01*
X5230878Y8492975D01*
X5230878Y8492975D02*
G01*
X4976878Y8492975D01*
X2690878Y8492975D02*
G01*
X2690878Y8443978D01*
X2184402Y7937502D01*
D10*
X1930402Y7819595D02*
G01*
X2032891Y7717106D01*
X2032891Y7417437D01*
X2130198Y7320130D01*
X2308710Y7320130D01*
X2435862Y7192977D01*
X1930402Y7937502D02*
G01*
X1930402Y7819595D01*
X2435862Y7446977D02*
G01*
X3071878Y8082993D01*
X3071878Y8619975D01*
X3198878Y8746975D01*
X2689862Y7446977D02*
G01*
X3325878Y8082993D01*
X3325878Y8619975D01*
X3452878Y8746975D01*
X2943862Y7446977D02*
G01*
X3579878Y8082993D01*
X3579878Y8619975D01*
X3706878Y8746975D01*
X3197862Y7446977D02*
G01*
X3833878Y8082993D01*
X3833878Y8619975D01*
X3960878Y8746975D01*
X3451862Y7446977D02*
G01*
X4087878Y8082993D01*
X4087878Y8619975D01*
X4214878Y8746975D01*
X3705862Y7446977D02*
G01*
X4341878Y8082993D01*
X4341878Y8619975D01*
X4468878Y8746975D01*
X3959862Y7446977D02*
G01*
X4595878Y8082993D01*
X4595878Y8619975D01*
X4722878Y8746975D01*
X4213862Y7446977D02*
G01*
X4849649Y8082765D01*
X4849649Y8619746D01*
X4976878Y8746975D01*
X4467862Y7446977D02*
G01*
X4340862Y7319977D01*
X4340862Y7142507D01*
X4419424Y7063945D01*
X5734154Y7063945D01*
X5987874Y7317666D01*
X5987874Y7832981D01*
X5361688Y8459167D01*
X5361688Y8616165D01*
X5230878Y8746975D01*
X2689862Y7192977D02*
G01*
X2570482Y7073597D01*
X1875436Y7073597D01*
X1800862Y7148172D01*
X1800862Y7250788D01*
X1711048Y7340602D01*
X1369037Y7340602D01*
X1312953Y7396685D01*
X1312953Y7974789D01*
X1544068Y8205904D01*
X1544068Y8623785D01*
X1420878Y8746975D01*
D13*
G01*
X2184400Y7937500D03*
G36*
X1840400Y8027499D02*
G01*
X2020399Y8027499D01*
X2020399Y7847500D01*
X1840400Y7847500D01*
G37*
G36*
X1340876Y8572982D02*
G01*
X1500875Y8572982D01*
X1500875Y8412982D01*
X1340876Y8412982D01*
G37*
D16*
G01*
X1420876Y8746982D03*
G01*
X1674876Y8492982D03*
G01*
X1674876Y8746982D03*
G01*
X1928876Y8492982D03*
G01*
X1928876Y8746982D03*
G01*
X2182875Y8492982D03*
G01*
X2182875Y8746982D03*
G01*
X2436875Y8492982D03*
G01*
X2436875Y8746982D03*
G01*
X2690875Y8492982D03*
G01*
X2690875Y8746982D03*
G01*
X2944875Y8492982D03*
G01*
X2944875Y8746982D03*
G01*
X3198875Y8492982D03*
G01*
X3198875Y8746982D03*
G01*
X3452875Y8492982D03*
G01*
X3452875Y8746982D03*
G01*
X3706875Y8492982D03*
G01*
X3706875Y8746982D03*
G01*
X3960875Y8492982D03*
G01*
X3960875Y8746982D03*
G01*
X4214875Y8492982D03*
G01*
X4214875Y8746982D03*
G01*
X4468875Y8492982D03*
G01*
X4468875Y8746982D03*
G01*
X4722875Y8492982D03*
G01*
X4722875Y8746982D03*
G01*
X4976875Y8492982D03*
G01*
X4976875Y8746982D03*
G01*
X5230875Y8492982D03*
G01*
X5230875Y8746982D03*
G01*
X5484875Y8492982D03*
G01*
X5484875Y8746982D03*
G36*
X1343660Y7269185D02*
G01*
X1496060Y7269185D01*
X1496060Y7116785D01*
X1343660Y7116785D01*
G37*
D18*
G01*
X1419860Y7446985D03*
G01*
X1673860Y7192985D03*
G01*
X1673860Y7446985D03*
G01*
X1927860Y7192985D03*
G01*
X1927860Y7446985D03*
G01*
X2181859Y7192985D03*
G01*
X2181859Y7446985D03*
G01*
X2435859Y7192985D03*
G01*
X2435859Y7446985D03*
G01*
X2689859Y7192985D03*
G01*
X2689859Y7446985D03*
G01*
X2943859Y7192985D03*
G01*
X2943859Y7446985D03*
G01*
X3197859Y7192985D03*
G01*
X3197859Y7446985D03*
G01*
X3451859Y7192985D03*
G01*
X3451859Y7446985D03*
G01*
X3705859Y7192985D03*
G01*
X3705859Y7446985D03*
G01*
X3959859Y7192985D03*
G01*
X3959859Y7446985D03*
G01*
X4213859Y7192985D03*
G01*
X4213859Y7446985D03*
G01*
X4467859Y7192985D03*
G01*
X4467859Y7446985D03*
D19*
G01*
X5610859Y7374381D03*
D20*
G01*
X5864859Y7374381D03*
M02*
