G04 Layer: TopSilkscreenLayer*
G04 EasyEDA v6.5.5, 2022-06-09 08:05:29*
G04 69c24ae5296d417eb78979a02e7a08e9,9bf960991b9d4efa812b5d32ee5e6833,10*
G04 Gerber Generator version 0.2*
G04 Scale: 100 percent, Rotated: No, Reflected: No *
G04 Dimensions in millimeters *
G04 leading zeros omitted , absolute positions ,4 integer and 5 decimal *
%FSLAX45Y45*%
%MOMM*%

%ADD10C,0.2540*%
%ADD12C,0.2032*%
%ADD21C,0.1524*%

%LPD*%
D12*
X5619750Y7170673D02*
G01*
X5619750Y7056120D01*
X5562600Y7113523D02*
G01*
X5677154Y7113523D01*
X5817108Y7113523D02*
G01*
X5931661Y7113523D01*
D21*
X2374900Y8082787D02*
G01*
X2385313Y8088121D01*
X2400808Y8103615D01*
X2400808Y7994650D01*
X2487168Y8103615D02*
G01*
X2435097Y8030971D01*
X2513075Y8030971D01*
X2487168Y8103615D02*
G01*
X2487168Y7994650D01*
X2599436Y8103615D02*
G01*
X2547365Y8030971D01*
X2625343Y8030971D01*
X2599436Y8103615D02*
G01*
X2599436Y7994650D01*
X2690875Y8103615D02*
G01*
X2675127Y8098536D01*
X2664713Y8082787D01*
X2659634Y8056879D01*
X2659634Y8041386D01*
X2664713Y8015223D01*
X2675127Y7999729D01*
X2690875Y7994650D01*
X2701290Y7994650D01*
X2716784Y7999729D01*
X2727197Y8015223D01*
X2732277Y8041386D01*
X2732277Y8056879D01*
X2727197Y8082787D01*
X2716784Y8098536D01*
X2701290Y8103615D01*
X2690875Y8103615D01*
X2766568Y7958073D02*
G01*
X2860040Y7958073D01*
X2967227Y8088121D02*
G01*
X2956813Y8098536D01*
X2941320Y8103615D01*
X2920491Y8103615D01*
X2904743Y8098536D01*
X2894329Y8088121D01*
X2894329Y8077708D01*
X2899663Y8067294D01*
X2904743Y8061960D01*
X2915158Y8056879D01*
X2946400Y8046465D01*
X2956813Y8041386D01*
X2961893Y8036052D01*
X2967227Y8025637D01*
X2967227Y8010144D01*
X2956813Y7999729D01*
X2941320Y7994650D01*
X2920491Y7994650D01*
X2904743Y7999729D01*
X2894329Y8010144D01*
X3001518Y8103615D02*
G01*
X3001518Y7994650D01*
X3001518Y8103615D02*
G01*
X3069081Y8103615D01*
X3001518Y8051800D02*
G01*
X3042920Y8051800D01*
X3001518Y7994650D02*
G01*
X3069081Y7994650D01*
X3103372Y8103615D02*
G01*
X3103372Y7994650D01*
X3103372Y7994650D02*
G01*
X3165602Y7994650D01*
X3199891Y8103615D02*
G01*
X3199891Y7994650D01*
X3199891Y8103615D02*
G01*
X3267456Y8103615D01*
X3199891Y8051800D02*
G01*
X3241547Y8051800D01*
X3199891Y7994650D02*
G01*
X3267456Y7994650D01*
X3379724Y8077708D02*
G01*
X3374390Y8088121D01*
X3364229Y8098536D01*
X3353815Y8103615D01*
X3332988Y8103615D01*
X3322574Y8098536D01*
X3312159Y8088121D01*
X3307079Y8077708D01*
X3301745Y8061960D01*
X3301745Y8036052D01*
X3307079Y8020558D01*
X3312159Y8010144D01*
X3322574Y7999729D01*
X3332988Y7994650D01*
X3353815Y7994650D01*
X3364229Y7999729D01*
X3374390Y8010144D01*
X3379724Y8020558D01*
X3450336Y8103615D02*
G01*
X3450336Y7994650D01*
X3414013Y8103615D02*
G01*
X3486658Y8103615D01*
X2743200Y9243044D02*
G01*
X2743200Y9134078D01*
X2743200Y9243044D02*
G01*
X2810763Y9243044D01*
X2743200Y9191228D02*
G01*
X2784856Y9191228D01*
X2845054Y9243044D02*
G01*
X2845054Y9134078D01*
X2845054Y9134078D02*
G01*
X2907284Y9134078D01*
X2972815Y9243044D02*
G01*
X2962402Y9237964D01*
X2951988Y9227550D01*
X2946908Y9217136D01*
X2941574Y9201388D01*
X2941574Y9175480D01*
X2946908Y9159986D01*
X2951988Y9149572D01*
X2962402Y9139158D01*
X2972815Y9134078D01*
X2993643Y9134078D01*
X3004058Y9139158D01*
X3014472Y9149572D01*
X3019552Y9159986D01*
X3024886Y9175480D01*
X3024886Y9201388D01*
X3019552Y9217136D01*
X3014472Y9227550D01*
X3004058Y9237964D01*
X2993643Y9243044D01*
X2972815Y9243044D01*
X3059175Y9243044D02*
G01*
X3059175Y9134078D01*
X3059175Y9243044D02*
G01*
X3105911Y9243044D01*
X3121406Y9237964D01*
X3126740Y9232630D01*
X3131820Y9222216D01*
X3131820Y9206722D01*
X3126740Y9196308D01*
X3121406Y9191228D01*
X3105911Y9185894D01*
X3059175Y9185894D01*
X3166109Y9243044D02*
G01*
X3166109Y9134078D01*
X3166109Y9243044D02*
G01*
X3212845Y9243044D01*
X3228340Y9237964D01*
X3233674Y9232630D01*
X3238754Y9222216D01*
X3238754Y9206722D01*
X3233674Y9196308D01*
X3228340Y9191228D01*
X3212845Y9185894D01*
X3166109Y9185894D01*
X3273043Y9243044D02*
G01*
X3314700Y9191228D01*
X3314700Y9134078D01*
X3356356Y9243044D02*
G01*
X3314700Y9191228D01*
X3390645Y9097502D02*
G01*
X3484118Y9097502D01*
X3518408Y9243044D02*
G01*
X3518408Y9134078D01*
X3518408Y9243044D02*
G01*
X3554729Y9243044D01*
X3570224Y9237964D01*
X3580638Y9227550D01*
X3585972Y9217136D01*
X3591052Y9201388D01*
X3591052Y9175480D01*
X3585972Y9159986D01*
X3580638Y9149572D01*
X3570224Y9139158D01*
X3554729Y9134078D01*
X3518408Y9134078D01*
X3625341Y9243044D02*
G01*
X3625341Y9134078D01*
X3625341Y9243044D02*
G01*
X3672077Y9243044D01*
X3687825Y9237964D01*
X3692906Y9232630D01*
X3698240Y9222216D01*
X3698240Y9211802D01*
X3692906Y9201388D01*
X3687825Y9196308D01*
X3672077Y9191228D01*
X3625341Y9191228D01*
X3661663Y9191228D02*
G01*
X3698240Y9134078D01*
X3732529Y9243044D02*
G01*
X3732529Y9134078D01*
X3766820Y9243044D02*
G01*
X3808222Y9134078D01*
X3849877Y9243044D02*
G01*
X3808222Y9134078D01*
X3884168Y9243044D02*
G01*
X3884168Y9134078D01*
X3884168Y9243044D02*
G01*
X3951731Y9243044D01*
X3884168Y9191228D02*
G01*
X3925570Y9191228D01*
X3884168Y9134078D02*
G01*
X3951731Y9134078D01*
X3147822Y7900415D02*
G01*
X3147822Y7791450D01*
X3111500Y7900415D02*
G01*
X3184143Y7900415D01*
X3249675Y7900415D02*
G01*
X3239261Y7895336D01*
X3228847Y7884921D01*
X3223768Y7874508D01*
X3218434Y7858760D01*
X3218434Y7832852D01*
X3223768Y7817358D01*
X3228847Y7806944D01*
X3239261Y7796529D01*
X3249675Y7791450D01*
X3270504Y7791450D01*
X3280918Y7796529D01*
X3291331Y7806944D01*
X3296411Y7817358D01*
X3301745Y7832852D01*
X3301745Y7858760D01*
X3296411Y7874508D01*
X3291331Y7884921D01*
X3280918Y7895336D01*
X3270504Y7900415D01*
X3249675Y7900415D01*
X3408679Y7884921D02*
G01*
X3398265Y7895336D01*
X3382772Y7900415D01*
X3361943Y7900415D01*
X3346450Y7895336D01*
X3336036Y7884921D01*
X3336036Y7874508D01*
X3341115Y7864094D01*
X3346450Y7858760D01*
X3356609Y7853679D01*
X3387852Y7843265D01*
X3398265Y7838186D01*
X3403600Y7832852D01*
X3408679Y7822437D01*
X3408679Y7806944D01*
X3398265Y7796529D01*
X3382772Y7791450D01*
X3361943Y7791450D01*
X3346450Y7796529D01*
X3336036Y7806944D01*
X3442970Y7900415D02*
G01*
X3442970Y7791450D01*
X3515613Y7900415D02*
G01*
X3515613Y7791450D01*
X3442970Y7848600D02*
G01*
X3515613Y7848600D01*
X3549904Y7900415D02*
G01*
X3549904Y7791450D01*
X3584193Y7900415D02*
G01*
X3584193Y7791450D01*
X3584193Y7900415D02*
G01*
X3630929Y7900415D01*
X3646677Y7895336D01*
X3651758Y7890002D01*
X3657091Y7879587D01*
X3657091Y7869173D01*
X3651758Y7858760D01*
X3646677Y7853679D01*
X3630929Y7848600D01*
X3584193Y7848600D02*
G01*
X3630929Y7848600D01*
X3646677Y7843265D01*
X3651758Y7838186D01*
X3657091Y7827771D01*
X3657091Y7812023D01*
X3651758Y7801610D01*
X3646677Y7796529D01*
X3630929Y7791450D01*
X3584193Y7791450D01*
X3732784Y7900415D02*
G01*
X3691381Y7791450D01*
X3732784Y7900415D02*
G01*
X3774440Y7791450D01*
X3706875Y7827771D02*
G01*
X3758945Y7827771D01*
X3808729Y7754873D02*
G01*
X3902202Y7754873D01*
X3936491Y7900415D02*
G01*
X3936491Y7791450D01*
X3936491Y7900415D02*
G01*
X3978147Y7791450D01*
X4019550Y7900415D02*
G01*
X3978147Y7791450D01*
X4019550Y7900415D02*
G01*
X4019550Y7791450D01*
X4095495Y7900415D02*
G01*
X4053840Y7791450D01*
X4095495Y7900415D02*
G01*
X4137152Y7791450D01*
X4069588Y7827771D02*
G01*
X4121404Y7827771D01*
X4171441Y7900415D02*
G01*
X4171441Y7791450D01*
X4205731Y7900415D02*
G01*
X4205731Y7791450D01*
X4205731Y7900415D02*
G01*
X4278375Y7791450D01*
X4278375Y7900415D02*
G01*
X4278375Y7791450D01*
X4312665Y7900415D02*
G01*
X4312665Y7791450D01*
X4312665Y7900415D02*
G01*
X4359402Y7900415D01*
X4375150Y7895336D01*
X4380229Y7890002D01*
X4385309Y7879587D01*
X4385309Y7869173D01*
X4380229Y7858760D01*
X4375150Y7853679D01*
X4359402Y7848600D01*
X4312665Y7848600D02*
G01*
X4359402Y7848600D01*
X4375150Y7843265D01*
X4380229Y7838186D01*
X4385309Y7827771D01*
X4385309Y7812023D01*
X4380229Y7801610D01*
X4375150Y7796529D01*
X4359402Y7791450D01*
X4312665Y7791450D01*
X4450841Y7900415D02*
G01*
X4440427Y7895336D01*
X4430013Y7884921D01*
X4424934Y7874508D01*
X4419600Y7858760D01*
X4419600Y7832852D01*
X4424934Y7817358D01*
X4430013Y7806944D01*
X4440427Y7796529D01*
X4450841Y7791450D01*
X4471670Y7791450D01*
X4482084Y7796529D01*
X4492497Y7806944D01*
X4497577Y7817358D01*
X4502911Y7832852D01*
X4502911Y7858760D01*
X4497577Y7874508D01*
X4492497Y7884921D01*
X4482084Y7895336D01*
X4471670Y7900415D01*
X4450841Y7900415D01*
X4578604Y7900415D02*
G01*
X4537202Y7791450D01*
X4578604Y7900415D02*
G01*
X4620259Y7791450D01*
X4552695Y7827771D02*
G01*
X4604765Y7827771D01*
X4654550Y7900415D02*
G01*
X4654550Y7791450D01*
X4654550Y7900415D02*
G01*
X4701286Y7900415D01*
X4716779Y7895336D01*
X4722113Y7890002D01*
X4727193Y7879587D01*
X4727193Y7869173D01*
X4722113Y7858760D01*
X4716779Y7853679D01*
X4701286Y7848600D01*
X4654550Y7848600D01*
X4690872Y7848600D02*
G01*
X4727193Y7791450D01*
X4761484Y7900415D02*
G01*
X4761484Y7791450D01*
X4761484Y7900415D02*
G01*
X4798059Y7900415D01*
X4813554Y7895336D01*
X4823968Y7884921D01*
X4829047Y7874508D01*
X4834381Y7858760D01*
X4834381Y7832852D01*
X4829047Y7817358D01*
X4823968Y7806944D01*
X4813554Y7796529D01*
X4798059Y7791450D01*
X4761484Y7791450D01*
X5575300Y7671815D02*
G01*
X5575300Y7562850D01*
X5575300Y7671815D02*
G01*
X5622036Y7671815D01*
X5637529Y7666736D01*
X5642863Y7661402D01*
X5647943Y7650987D01*
X5647943Y7635494D01*
X5642863Y7625079D01*
X5637529Y7620000D01*
X5622036Y7614665D01*
X5575300Y7614665D01*
X5682234Y7671815D02*
G01*
X5708395Y7562850D01*
X5734304Y7671815D02*
G01*
X5708395Y7562850D01*
X5734304Y7671815D02*
G01*
X5760211Y7562850D01*
X5786120Y7671815D02*
G01*
X5760211Y7562850D01*
X5820409Y7671815D02*
G01*
X5820409Y7562850D01*
X5820409Y7671815D02*
G01*
X5867400Y7671815D01*
X5882893Y7666736D01*
X5887974Y7661402D01*
X5893308Y7650987D01*
X5893308Y7640573D01*
X5887974Y7630160D01*
X5882893Y7625079D01*
X5867400Y7620000D01*
X5820409Y7620000D01*
X5856986Y7620000D02*
G01*
X5893308Y7562850D01*
D10*
X1803400Y8064500D02*
G01*
X2311400Y8064500D01*
X2311400Y7810500D01*
X1803400Y7810500D01*
X1803400Y8064500D01*
X5991877Y9059981D02*
G01*
X5991877Y8179983D01*
X5876876Y8949982D02*
G01*
X5876876Y8289980D01*
X913874Y9059981D02*
G01*
X5991877Y9059981D01*
X913874Y8179983D02*
G01*
X913874Y9059981D01*
X1028875Y8289983D02*
G01*
X1028875Y8949984D01*
X1028875Y8949984D02*
G01*
X5876876Y8949984D01*
X1028875Y8289980D02*
G01*
X3227875Y8289980D01*
X3677876Y8289980D02*
G01*
X5876876Y8289980D01*
X913874Y8179983D02*
G01*
X5991877Y8179983D01*
X3677879Y8365982D02*
G01*
X3677879Y8179983D01*
X3227872Y8365982D02*
G01*
X3227872Y8179983D01*
X3227872Y8365982D02*
G01*
X3677879Y8365982D01*
X1420876Y8104771D02*
G01*
X1360263Y7992196D01*
X1481485Y7992196D01*
X1420876Y8104771D01*
X1432560Y6888185D02*
G01*
X1419860Y6900885D01*
X1419860Y6900885D02*
G01*
X1381760Y6862785D01*
X1457960Y6862785D01*
X1432560Y6888185D01*
X2689859Y7015185D02*
G01*
X2689859Y7065985D01*
X3197859Y7065985D01*
X3197859Y7015185D01*
X913866Y7719984D02*
G01*
X4973878Y7719984D01*
X4973878Y6919986D01*
X913866Y6919986D01*
X913866Y7719984D01*
X1023848Y7634996D02*
G01*
X4863845Y7634996D01*
X4863845Y7004999D01*
X1023848Y7004999D01*
X1023848Y7634996D01*
D12*
X5991859Y7501381D02*
G01*
X5991859Y7249921D01*
X5483859Y7249921D01*
X5483859Y7501381D01*
X5991859Y7501381D01*
M02*
