G04 Layer: TopLayer*
G04 EasyEDA v6.5.5, 2022-06-09 08:05:29*
G04 69c24ae5296d417eb78979a02e7a08e9,9bf960991b9d4efa812b5d32ee5e6833,10*
G04 Gerber Generator version 0.2*
G04 Scale: 100 percent, Rotated: No, Reflected: No *
G04 Dimensions in millimeters *
G04 leading zeros omitted , absolute positions ,4 integer and 5 decimal *
%FSLAX45Y45*%
%MOMM*%

%ADD10C,0.2540*%
%ADD11C,0.5080*%
%ADD12C,0.2032*%
%ADD13C,1.8000*%
%ADD16C,1.6000*%
%ADD18C,1.5240*%
%ADD19R,1.5748X1.5748*%
%ADD20C,1.5748*%

%LPD*%
D12*
X5080761Y7067550D02*
G01*
X5176265Y7067550D01*
X5080761Y7035800D02*
G01*
X5080761Y7099554D01*
X5080761Y7156704D02*
G01*
X5085334Y7147560D01*
X5094224Y7138415D01*
X5103368Y7134097D01*
X5117084Y7129526D01*
X5139690Y7129526D01*
X5153406Y7134097D01*
X5162550Y7138415D01*
X5171693Y7147560D01*
X5176265Y7156704D01*
X5176265Y7174992D01*
X5171693Y7183881D01*
X5162550Y7193026D01*
X5153406Y7197597D01*
X5139690Y7202170D01*
X5117084Y7202170D01*
X5103368Y7197597D01*
X5094224Y7193026D01*
X5085334Y7183881D01*
X5080761Y7174992D01*
X5080761Y7156704D01*
X5094224Y7295895D02*
G01*
X5085334Y7286752D01*
X5080761Y7273036D01*
X5080761Y7255002D01*
X5085334Y7241286D01*
X5094224Y7232142D01*
X5103368Y7232142D01*
X5112511Y7236713D01*
X5117084Y7241286D01*
X5121656Y7250429D01*
X5130800Y7277608D01*
X5135118Y7286752D01*
X5139690Y7291323D01*
X5148834Y7295895D01*
X5162550Y7295895D01*
X5171693Y7286752D01*
X5176265Y7273036D01*
X5176265Y7255002D01*
X5171693Y7241286D01*
X5162550Y7232142D01*
X5080761Y7325868D02*
G01*
X5176265Y7325868D01*
X5080761Y7389368D02*
G01*
X5176265Y7389368D01*
X5126227Y7325868D02*
G01*
X5126227Y7389368D01*
X5080761Y7419339D02*
G01*
X5176265Y7419339D01*
X5080761Y7449312D02*
G01*
X5176265Y7449312D01*
X5080761Y7449312D02*
G01*
X5080761Y7490460D01*
X5085334Y7503921D01*
X5089906Y7508494D01*
X5098795Y7513065D01*
X5107940Y7513065D01*
X5117084Y7508494D01*
X5121656Y7503921D01*
X5126227Y7490460D01*
X5126227Y7449312D02*
G01*
X5126227Y7490460D01*
X5130800Y7503921D01*
X5135118Y7508494D01*
X5144261Y7513065D01*
X5157977Y7513065D01*
X5167122Y7508494D01*
X5171693Y7503921D01*
X5176265Y7490460D01*
X5176265Y7449312D01*
X5080761Y7579360D02*
G01*
X5176265Y7543037D01*
X5080761Y7579360D02*
G01*
X5176265Y7615681D01*
X5144261Y7556754D02*
G01*
X5144261Y7602220D01*
X5080761Y7715758D02*
G01*
X5176265Y7715758D01*
X5080761Y7715758D02*
G01*
X5080761Y7774939D01*
X5126227Y7715758D02*
G01*
X5126227Y7752079D01*
X5080761Y7804912D02*
G01*
X5176265Y7804912D01*
X5080761Y7804912D02*
G01*
X5080761Y7836662D01*
X5085334Y7850378D01*
X5094224Y7859521D01*
X5103368Y7864094D01*
X5117084Y7868412D01*
X5139690Y7868412D01*
X5153406Y7864094D01*
X5162550Y7859521D01*
X5171693Y7850378D01*
X5176265Y7836662D01*
X5176265Y7804912D01*
X5080761Y7898637D02*
G01*
X5176265Y7898637D01*
X5080761Y7898637D02*
G01*
X5080761Y7930387D01*
X5085334Y7944104D01*
X5094224Y7952994D01*
X5103368Y7957565D01*
X5117084Y7962137D01*
X5139690Y7962137D01*
X5153406Y7957565D01*
X5162550Y7952994D01*
X5171693Y7944104D01*
X5176265Y7930387D01*
X5176265Y7898637D01*
X5282184Y7072121D02*
G01*
X5377688Y7035800D01*
X5282184Y7072121D02*
G01*
X5377688Y7108444D01*
X5345938Y7049515D02*
G01*
X5345938Y7094981D01*
X5282184Y7138415D02*
G01*
X5377688Y7138415D01*
X5282184Y7138415D02*
G01*
X5282184Y7170420D01*
X5286756Y7183881D01*
X5295900Y7193026D01*
X5305043Y7197597D01*
X5318759Y7202170D01*
X5341365Y7202170D01*
X5355081Y7197597D01*
X5364225Y7193026D01*
X5373115Y7183881D01*
X5377688Y7170420D01*
X5377688Y7138415D01*
X5282184Y7268463D02*
G01*
X5377688Y7232142D01*
X5282184Y7268463D02*
G01*
X5377688Y7304786D01*
X5345938Y7245858D02*
G01*
X5345938Y7291323D01*
X5282184Y7335012D02*
G01*
X5377688Y7335012D01*
X5282184Y7335012D02*
G01*
X5282184Y7375905D01*
X5286756Y7389368D01*
X5291327Y7393939D01*
X5300472Y7398512D01*
X5314188Y7398512D01*
X5323077Y7393939D01*
X5327650Y7389368D01*
X5332222Y7375905D01*
X5332222Y7335012D01*
X5282184Y7460234D02*
G01*
X5377688Y7460234D01*
X5282184Y7428484D02*
G01*
X5282184Y7492237D01*
X5282184Y7522210D02*
G01*
X5377688Y7522210D01*
X5282184Y7522210D02*
G01*
X5282184Y7581137D01*
X5327650Y7522210D02*
G01*
X5327650Y7558531D01*
X5377688Y7522210D02*
G01*
X5377688Y7581137D01*
X5282184Y7611363D02*
G01*
X5377688Y7611363D01*
X5282184Y7611363D02*
G01*
X5282184Y7652258D01*
X5286756Y7665720D01*
X5291327Y7670292D01*
X5300472Y7674863D01*
X5309615Y7674863D01*
X5318759Y7670292D01*
X5323077Y7665720D01*
X5327650Y7652258D01*
X5327650Y7611363D01*
X5327650Y7643113D02*
G01*
X5377688Y7674863D01*
X5282184Y7774939D02*
G01*
X5377688Y7811262D01*
X5282184Y7847584D02*
G01*
X5377688Y7811262D01*
X5300472Y7877555D02*
G01*
X5295900Y7886700D01*
X5282184Y7900415D01*
X5377688Y7900415D01*
X5355081Y7934960D02*
G01*
X5359654Y7930387D01*
X5364225Y7934960D01*
X5359654Y7939531D01*
X5355081Y7934960D01*
X5300472Y7969504D02*
G01*
X5295900Y7978647D01*
X5282184Y7992110D01*
X5377688Y7992110D01*
D10*
X1927862Y7446977D02*
G01*
X2781505Y8300620D01*
X4960851Y8300620D01*
X5103878Y8443648D01*
X5103878Y8542200D01*
X5192321Y8630643D01*
X5368546Y8630643D01*
X5484878Y8746975D01*
D11*
X4467862Y7192977D02*
G01*
X4213862Y7192977D01*
X4213862Y7192977D02*
G01*
X3959862Y7192977D01*
X3959862Y7192977D02*
G01*
X3705862Y7192977D01*
X3705862Y7192977D02*
G01*
X3451862Y7192977D01*
X3451862Y7192977D02*
G01*
X3197862Y7192977D01*
X3197862Y7192977D02*
G01*
X2943862Y7192977D01*
X4976878Y8492975D02*
G01*
X4722878Y8492975D01*
X4722878Y8492975D02*
G01*
X4468878Y8492975D01*
X4468878Y8492975D02*
G01*
X4214878Y8492975D01*
X4214878Y8492975D02*
G01*
X3960878Y8492975D01*
X3960878Y8492975D02*
G01*
X3706878Y8492975D01*
X3706878Y8492975D02*
G01*
X3452878Y8492975D01*
X3452878Y8492975D02*
G01*
X3198878Y8492975D01*
X3198878Y8492975D02*
G01*
X2944878Y8492975D01*
X2944878Y8492975D02*
G01*
X2690878Y8492975D01*
X2690878Y8492975D02*
G01*
X2436878Y8492975D01*
X2436878Y8492975D02*
G01*
X2182878Y8492975D01*
X2182878Y8492975D02*
G01*
X1928878Y8492975D01*
X1928878Y8492975D02*
G01*
X1674878Y8492975D01*
X1674878Y8492975D02*
G01*
X1420878Y8492975D01*
X5610862Y7374384D02*
G01*
X5610862Y7146775D01*
X5425467Y6961380D01*
X2413459Y6961380D01*
X2181862Y7192977D01*
X2181862Y7192977D02*
G01*
X1927862Y7192977D01*
X1927862Y7192977D02*
G01*
X1673862Y7192977D01*
X1673862Y7192977D02*
G01*
X1419862Y7192977D01*
D13*
G01*
X2184400Y7937500D03*
G36*
X1840400Y8027499D02*
G01*
X2020399Y8027499D01*
X2020399Y7847500D01*
X1840400Y7847500D01*
G37*
G36*
X1340876Y8572982D02*
G01*
X1500875Y8572982D01*
X1500875Y8412982D01*
X1340876Y8412982D01*
G37*
D16*
G01*
X1420876Y8746982D03*
G01*
X1674876Y8492982D03*
G01*
X1674876Y8746982D03*
G01*
X1928876Y8492982D03*
G01*
X1928876Y8746982D03*
G01*
X2182875Y8492982D03*
G01*
X2182875Y8746982D03*
G01*
X2436875Y8492982D03*
G01*
X2436875Y8746982D03*
G01*
X2690875Y8492982D03*
G01*
X2690875Y8746982D03*
G01*
X2944875Y8492982D03*
G01*
X2944875Y8746982D03*
G01*
X3198875Y8492982D03*
G01*
X3198875Y8746982D03*
G01*
X3452875Y8492982D03*
G01*
X3452875Y8746982D03*
G01*
X3706875Y8492982D03*
G01*
X3706875Y8746982D03*
G01*
X3960875Y8492982D03*
G01*
X3960875Y8746982D03*
G01*
X4214875Y8492982D03*
G01*
X4214875Y8746982D03*
G01*
X4468875Y8492982D03*
G01*
X4468875Y8746982D03*
G01*
X4722875Y8492982D03*
G01*
X4722875Y8746982D03*
G01*
X4976875Y8492982D03*
G01*
X4976875Y8746982D03*
G01*
X5230875Y8492982D03*
G01*
X5230875Y8746982D03*
G01*
X5484875Y8492982D03*
G01*
X5484875Y8746982D03*
G36*
X1343660Y7269185D02*
G01*
X1496060Y7269185D01*
X1496060Y7116785D01*
X1343660Y7116785D01*
G37*
D18*
G01*
X1419860Y7446985D03*
G01*
X1673860Y7192985D03*
G01*
X1673860Y7446985D03*
G01*
X1927860Y7192985D03*
G01*
X1927860Y7446985D03*
G01*
X2181859Y7192985D03*
G01*
X2181859Y7446985D03*
G01*
X2435859Y7192985D03*
G01*
X2435859Y7446985D03*
G01*
X2689859Y7192985D03*
G01*
X2689859Y7446985D03*
G01*
X2943859Y7192985D03*
G01*
X2943859Y7446985D03*
G01*
X3197859Y7192985D03*
G01*
X3197859Y7446985D03*
G01*
X3451859Y7192985D03*
G01*
X3451859Y7446985D03*
G01*
X3705859Y7192985D03*
G01*
X3705859Y7446985D03*
G01*
X3959859Y7192985D03*
G01*
X3959859Y7446985D03*
G01*
X4213859Y7192985D03*
G01*
X4213859Y7446985D03*
G01*
X4467859Y7192985D03*
G01*
X4467859Y7446985D03*
D19*
G01*
X5610859Y7374381D03*
D20*
G01*
X5864859Y7374381D03*
M02*
